<svg width="541" height="193" viewBox="0 0 541 193" fill="none" xmlns="http://www.w3.org/2000/svg">
<path d="M541 104.351V155.999H526.778V149.855C524.792 152.095 522.421 153.823 519.667 155.039C516.912 156.191 513.933 156.767 510.73 156.767C503.939 156.767 498.558 154.815 494.586 150.911C490.614 147.007 488.628 141.215 488.628 133.535V104.351H503.619V131.327C503.619 139.647 507.11 143.807 514.093 143.807C517.681 143.807 520.564 142.655 522.742 140.351C524.92 137.983 526.009 134.495 526.009 129.887V104.351H541Z" fill="#01071B"/>
<path d="M455.258 156.768C450.966 156.768 446.77 156.256 442.67 155.231C438.57 154.143 435.302 152.8 432.868 151.2L437.865 140.448C440.171 141.92 442.958 143.136 446.225 144.096C449.492 144.992 452.696 145.439 455.835 145.439C462.177 145.439 465.348 143.871 465.348 140.735C465.348 139.263 464.483 138.207 462.754 137.567C461.024 136.927 458.365 136.383 454.778 135.936C450.549 135.295 447.058 134.559 444.303 133.727C441.548 132.896 439.146 131.424 437.096 129.311C435.11 127.199 434.117 124.191 434.117 120.288C434.117 117.023 435.046 114.143 436.904 111.647C438.826 109.087 441.581 107.103 445.168 105.695C448.82 104.287 453.112 103.583 458.045 103.583C461.697 103.583 465.316 104 468.904 104.831C472.556 105.599 475.567 106.687 477.937 108.095L472.94 118.751C468.391 116.191 463.426 114.911 458.045 114.911C454.842 114.911 452.439 115.359 450.838 116.255C449.236 117.151 448.435 118.303 448.435 119.711C448.435 121.311 449.3 122.431 451.03 123.071C452.76 123.711 455.514 124.319 459.294 124.895C463.523 125.599 466.982 126.368 469.673 127.2C472.363 127.968 474.702 129.407 476.688 131.519C478.674 133.632 479.667 136.576 479.667 140.352C479.667 143.552 478.706 146.399 476.784 148.896C474.862 151.391 472.043 153.343 468.327 154.751C464.676 156.096 460.319 156.768 455.258 156.768Z" fill="#01071B"/>
<path d="M399.496 156.768C394.051 156.768 389.15 155.648 384.793 153.408C380.501 151.104 377.138 147.935 374.703 143.903C372.269 139.871 371.052 135.295 371.052 130.175C371.052 125.055 372.269 120.479 374.703 116.447C377.138 112.415 380.501 109.279 384.793 107.039C389.15 104.736 394.051 103.583 399.496 103.583C404.941 103.583 409.81 104.736 414.103 107.039C418.395 109.279 421.758 112.415 424.193 116.447C426.627 120.479 427.844 125.055 427.844 130.175C427.844 135.295 426.627 139.871 424.193 143.903C421.758 147.935 418.395 151.104 414.103 153.408C409.81 155.648 404.941 156.768 399.496 156.768ZM399.496 144.479C403.34 144.479 406.479 143.2 408.913 140.64C411.412 138.016 412.661 134.527 412.661 130.175C412.661 125.823 411.412 122.368 408.913 119.808C406.479 117.183 403.34 115.871 399.496 115.871C395.652 115.871 392.481 117.183 389.982 119.808C387.484 122.368 386.235 125.823 386.235 130.175C386.235 134.527 387.484 138.016 389.982 140.64C392.481 143.2 395.652 144.479 399.496 144.479Z" fill="#01071B"/>
<path d="M339.314 103.583C345.721 103.583 350.878 105.503 354.786 109.343C358.758 113.183 360.744 118.879 360.744 126.431V155.999H345.753V128.735C345.753 124.639 344.856 121.6 343.062 119.616C341.268 117.568 338.674 116.543 335.278 116.543C331.498 116.543 328.487 117.727 326.245 120.095C324.003 122.399 322.882 125.855 322.882 130.463V155.999H307.891V104.351H322.209V110.399C324.195 108.223 326.662 106.56 329.609 105.408C332.556 104.192 335.791 103.583 339.314 103.583Z" fill="#01071B"/>
<path d="M278.987 104.352H293.978V156H278.987V104.352ZM286.482 97.1518C283.728 97.1518 281.485 96.3518 279.756 94.7518C278.026 93.1518 277.161 91.1678 277.161 88.7998C277.161 86.4318 278.026 84.4478 279.756 82.8478C281.485 81.2478 283.728 80.4478 286.482 80.4478C289.237 80.4478 291.479 81.2158 293.209 82.7518C294.939 84.2878 295.804 86.2078 295.804 88.5118C295.804 91.0078 294.939 93.0878 293.209 94.7518C291.479 96.3518 289.237 97.1518 286.482 97.1518Z" fill="#01071B"/>
<path d="M254.126 100.895C248.745 100.895 244.677 102.079 241.922 104.447C239.167 106.751 237.79 110.239 237.79 114.911V119.039H265.466V131.519H237.79V155.999H222.223V115.007C222.223 106.367 224.913 99.6475 230.295 94.8475C235.74 90.0475 243.332 87.6475 253.069 87.6475C256.913 87.6475 260.533 88.0635 263.928 88.8955C267.324 89.6635 270.271 90.8155 272.769 92.3515L267.964 104.639C264.12 102.143 259.508 100.895 254.126 100.895Z" fill="#01071B"/>
<path d="M156.156 120.12L192.192 78.0782L144.144 54.0541L120.12 12.012L36.0361 0L0 42.5094V102.876L42.0421 54.0541L12.0694 120.12H109.085H156.156Z" fill="#01071B"/>
<path d="M12.012 132.132L144.144 192.192L108.108 132.132H12.012Z" fill="#01071B"/>
</svg>
